<svg width="105" height="18" viewBox="0 0 105 18" fill="none" xmlns="http://www.w3.org/2000/svg">
<g clip-path="url(#clip0)">
<path d="M9.11603 0.625785L6.82033 5.28048L1.684 6.0293C0.762907 6.1629 0.393767 7.29845 1.06174 7.94884L4.77775 11.5699L3.89884 16.6852C3.74064 17.6098 4.71447 18.3024 5.53009 17.8699L10.125 15.4547L14.7199 17.8699C15.5356 18.2988 16.5094 17.6098 16.3512 16.6852L15.4723 11.5699L19.1883 7.94884C19.8563 7.29845 19.4871 6.1629 18.566 6.0293L13.4297 5.28048L11.134 0.625785C10.7227 -0.203903 9.53088 -0.21445 9.11603 0.625785Z" fill="#FFC107"/>
</g>
<g clip-path="url(#clip1)">
<path d="M30.2098 0.625785L27.9141 5.28048L22.7778 6.0293C21.8567 6.1629 21.4875 7.29845 22.1555 7.94884L25.8715 11.5699L24.9926 16.6852C24.8344 17.6098 25.8082 18.3024 26.6238 17.8699L31.2188 15.4547L35.8137 17.8699C36.6293 18.2988 37.6031 17.6098 37.4449 16.6852L36.566 11.5699L40.282 7.94884C40.95 7.29845 40.5809 6.1629 39.6598 6.0293L34.5235 5.28048L32.2278 0.625785C31.8164 -0.203903 30.6246 -0.21445 30.2098 0.625785Z" fill="#FFC107"/>
</g>
<g clip-path="url(#clip2)">
<path d="M51.3035 0.625785L49.0078 5.28048L43.8715 6.0293C42.9504 6.1629 42.5813 7.29845 43.2492 7.94884L46.9653 11.5699L46.0863 16.6852C45.9281 17.6098 46.902 18.3024 47.7176 17.8699L52.3125 15.4547L56.9074 17.8699C57.7231 18.2988 58.6969 17.6098 58.5387 16.6852L57.6598 11.5699L61.3758 7.94884C62.0438 7.29845 61.6746 6.1629 60.7535 6.0293L55.6172 5.28048L53.3215 0.625785C52.9102 -0.203903 51.7184 -0.21445 51.3035 0.625785Z" fill="#FFC107"/>
</g>
<g clip-path="url(#clip3)">
<path d="M72.3973 0.625785L70.1016 5.28048L64.9653 6.0293C64.0442 6.1629 63.675 7.29845 64.343 7.94884L68.059 11.5699L67.1801 16.6852C67.0219 17.6098 67.9957 18.3024 68.8113 17.8699L73.4063 15.4547L78.0012 17.8699C78.8168 18.2988 79.7906 17.6098 79.6324 16.6852L78.7535 11.5699L82.4695 7.94884C83.1375 7.29845 82.7684 6.1629 81.8473 6.0293L76.711 5.28048L74.4153 0.625785C74.0039 -0.203903 72.8121 -0.21445 72.3973 0.625785Z" fill="#FFC107"/>
</g>
<g clip-path="url(#clip4)">
<path d="M93.491 0.625785L91.1953 5.28048L86.059 6.0293C85.1379 6.1629 84.7688 7.29845 85.4367 7.94884L89.1528 11.5699L88.2738 16.6852C88.1156 17.6098 89.0895 18.3024 89.9051 17.8699L94.5 15.4547L99.0949 17.8699C99.9106 18.2988 100.884 17.6098 100.726 16.6852L99.8473 11.5699L103.563 7.94884C104.231 7.29845 103.862 6.1629 102.941 6.0293L97.8047 5.28048L95.509 0.625785C95.0977 -0.203903 93.9059 -0.21445 93.491 0.625785Z" fill="#FFC107"/>
</g>
<defs>
<clipPath id="clip0">
<rect width="20.25" height="18" fill="white"/>
</clipPath>
<clipPath id="clip1">
<rect width="20.25" height="18" fill="white" transform="translate(21.0938)"/>
</clipPath>
<clipPath id="clip2">
<rect width="20.25" height="18" fill="white" transform="translate(42.1875)"/>
</clipPath>
<clipPath id="clip3">
<rect width="20.25" height="18" fill="white" transform="translate(63.2812)"/>
</clipPath>
<clipPath id="clip4">
<rect width="20.25" height="18" fill="white" transform="translate(84.375)"/>
</clipPath>
</defs>
</svg>
